<svg width="270" height="220" viewBox="0 0 270 220" fill="none" xmlns="http://www.w3.org/2000/svg">
<path d="M18 119.904C16.4 119.904 15.184 119.376 14.352 118.32C13.52 117.264 12.944 115.696 12.624 113.616C12.336 111.504 12.192 108.896 12.192 105.792C12.192 104.672 12.208 103.616 12.24 102.624C12.272 101.632 12.304 100.704 12.336 99.84C8.496 99.648 5.68 99.104 3.888 98.208C2.096 97.312 1.2 95.76 1.2 93.552C1.2 90.8 2.592 88.944 5.376 87.984C8.192 87.024 12.416 86.544 18.048 86.544C23.712 86.544 27.968 87.024 30.816 87.984C33.696 88.944 35.136 90.8 35.136 93.552C35.136 95.728 34.224 97.28 32.4 98.208C30.608 99.104 27.808 99.648 24 99.84C24.064 100.704 24.112 101.632 24.144 102.624C24.176 103.616 24.192 104.672 24.192 105.792C24.192 110.688 23.76 114.272 22.896 116.544C22.032 118.784 20.4 119.904 18 119.904ZM38.3516 120C37.2636 120 36.3676 119.648 35.6636 118.944C34.9916 118.208 34.4796 117.232 34.1276 116.016C33.7756 114.8 33.5356 113.408 33.4076 111.84C33.2796 110.272 33.2156 108.656 33.2156 106.992C33.2156 105.872 33.2316 104.736 33.2636 103.584C33.3276 102.4 33.4876 101.312 33.7436 100.32C34.0316 99.328 34.4956 98.528 35.1356 97.92C35.8076 97.28 36.7516 96.96 37.9676 96.96C38.8316 96.96 39.6156 97.168 40.3196 97.584C41.0236 97.968 41.4716 98.56 41.6636 99.36C42.3996 98.688 43.3276 98.208 44.4476 97.92C45.5996 97.6 46.7836 97.44 47.9996 97.44C49.0236 97.44 50.0636 97.696 51.1196 98.208C52.1756 98.688 53.0716 99.36 53.8076 100.224C54.5436 101.088 54.9116 102.064 54.9116 103.152C54.9116 104.08 54.5596 104.96 53.8556 105.792C53.1836 106.624 52.2236 107.04 50.9756 107.04C50.4316 107.04 49.9836 106.976 49.6316 106.848C49.2796 106.688 48.9436 106.544 48.6236 106.416C48.3036 106.288 47.9196 106.224 47.4716 106.224C46.2876 106.224 45.1996 106.704 44.2076 107.664C43.2476 108.592 42.7676 109.856 42.7676 111.456C42.7676 112.288 42.7356 113.2 42.6716 114.192C42.6396 115.152 42.4956 116.08 42.2396 116.976C42.0156 117.872 41.5996 118.608 40.9916 119.184C40.3836 119.728 39.5036 120 38.3516 120ZM64.4963 120C62.9283 120 61.4883 119.76 60.1763 119.28C58.8963 118.8 57.8723 118.08 57.1043 117.12C56.3363 116.128 55.9523 114.88 55.9523 113.376C55.9523 112.096 56.3363 111.008 57.1043 110.112C57.8723 109.216 58.8963 108.528 60.1763 108.048C61.4883 107.568 62.9283 107.328 64.4963 107.328C65.4243 107.328 66.2723 107.408 67.0403 107.568C67.8083 107.696 68.3363 107.856 68.6243 108.048C68.6243 107.312 68.3203 106.672 67.7123 106.128C67.1043 105.552 66.0483 105.264 64.5443 105.264C63.8403 105.264 63.2803 105.328 62.8643 105.456C62.4803 105.552 62.1283 105.68 61.8083 105.84C61.4883 106 61.1203 106.144 60.7043 106.272C60.3203 106.368 59.7923 106.416 59.1203 106.416C58.1283 106.416 57.3283 106.16 56.7203 105.648C56.1443 105.104 55.8563 104.288 55.8563 103.2C55.8563 102.208 56.1283 101.36 56.6723 100.656C57.2483 99.92 57.9843 99.312 58.8803 98.832C59.7763 98.352 60.7363 98 61.7603 97.776C62.8163 97.552 63.8243 97.44 64.7843 97.44C67.6323 97.44 69.9523 97.968 71.7443 99.024C73.5363 100.048 74.8643 101.392 75.7283 103.056C76.5923 104.72 77.0243 106.528 77.0243 108.48C77.0243 109.568 76.9283 110.576 76.7363 111.504C76.5763 112.432 76.3523 113.152 76.0643 113.664C76.5123 114.048 76.8483 114.496 77.0723 115.008C77.3283 115.52 77.4563 116.048 77.4563 116.592C77.4563 117.488 77.1523 118.288 76.5443 118.992C75.9683 119.664 75.1363 120 74.0483 120C73.2163 120 72.5603 119.872 72.0803 119.616C71.6003 119.36 71.1203 119.024 70.6403 118.608C69.8723 119.056 69.0243 119.408 68.0963 119.664C67.1683 119.888 65.9683 120 64.4963 120ZM65.4563 115.152C66.1923 115.152 66.7363 115.008 67.0883 114.72C67.4723 114.4 67.6643 114.048 67.6643 113.664C67.6643 113.28 67.4723 112.944 67.0883 112.656C66.7363 112.336 66.1923 112.176 65.4563 112.176C64.7523 112.176 64.2083 112.336 63.8243 112.656C63.4403 112.944 63.2483 113.28 63.2483 113.664C63.2483 114.048 63.4403 114.4 63.8243 114.72C64.2083 115.008 64.7523 115.152 65.4563 115.152ZM98.3475 120C97.0675 120 96.1555 119.648 95.6115 118.944C95.0995 118.208 94.7955 117.296 94.6995 116.208C94.6035 115.088 94.5555 113.968 94.5555 112.848C94.5555 111.152 94.3155 109.792 93.8355 108.768C93.3555 107.712 92.5075 107.184 91.2915 107.184C90.2035 107.184 89.4035 107.712 88.8915 108.768C88.3795 109.792 88.1235 111.152 88.1235 112.848C88.1235 113.968 88.0755 115.072 87.9795 116.16C87.9155 117.248 87.6275 118.16 87.1155 118.896C86.6035 119.6 85.6755 119.952 84.3315 119.952C83.3395 119.952 82.5075 119.584 81.8355 118.848C81.1955 118.112 80.6995 117.152 80.3475 115.968C79.9955 114.784 79.7395 113.504 79.5795 112.128C79.4515 110.752 79.3875 109.424 79.3875 108.144C79.3875 106.864 79.4515 105.552 79.5795 104.208C79.7075 102.864 79.9315 101.616 80.2515 100.464C80.6035 99.312 81.0995 98.384 81.7395 97.68C82.3795 96.976 83.2115 96.624 84.2355 96.624C86.0595 96.624 87.1955 97.456 87.6435 99.12C88.0275 98.704 88.6355 98.32 89.4675 97.968C90.3315 97.584 91.3075 97.392 92.3955 97.392C94.8595 97.392 96.8755 98.016 98.4435 99.264C100.012 100.512 101.148 102.24 101.852 104.448C102.588 106.624 102.94 109.152 102.908 112.032C102.908 113.504 102.764 114.848 102.476 116.064C102.22 117.248 101.756 118.208 101.084 118.944C100.444 119.648 99.5315 120 98.3475 120ZM114.836 128.208C113.044 128.208 111.54 127.856 110.324 127.152C109.108 126.48 108.5 125.552 108.5 124.368C108.5 123.152 109.028 122.208 110.084 121.536C111.14 120.864 112.42 120.656 113.924 120.912C115.684 121.168 117.252 121.056 118.628 120.576C120.036 120.128 120.868 119.44 121.124 118.512C120.612 118.8 119.908 119.04 119.012 119.232C118.116 119.424 117.108 119.52 115.988 119.52C113.812 119.52 111.972 119.2 110.468 118.56C108.996 117.888 107.812 117.04 106.916 116.016C106.02 114.96 105.364 113.856 104.948 112.704C104.564 111.52 104.372 110.432 104.372 109.44C104.372 106.816 104.932 104.608 106.052 102.816C107.204 101.024 108.66 99.664 110.42 98.736C112.18 97.808 113.988 97.344 115.844 97.344C116.452 97.344 117.172 97.392 118.004 97.488C118.868 97.552 119.604 97.664 120.212 97.824C120.468 97.024 120.884 96.368 121.46 95.856C122.068 95.344 123.028 95.088 124.34 95.088C125.492 95.088 126.452 95.488 127.22 96.288C127.988 97.056 128.596 98.112 129.044 99.456C129.492 100.768 129.812 102.24 130.004 103.872C130.196 105.472 130.276 107.136 130.244 108.864C130.244 110.56 130.164 112.16 130.004 113.664C129.684 116.64 128.868 119.216 127.556 121.392C126.244 123.568 124.5 125.248 122.324 126.432C120.18 127.616 117.684 128.208 114.836 128.208ZM116.612 112.32C117.604 112.32 118.468 111.952 119.204 111.216C119.94 110.48 120.308 109.632 120.308 108.672C120.308 107.68 119.94 106.816 119.204 106.08C118.468 105.344 117.604 104.976 116.612 104.976C115.62 104.976 114.756 105.344 114.02 106.08C113.316 106.816 112.964 107.68 112.964 108.672C112.964 109.632 113.316 110.48 114.02 111.216C114.756 111.952 115.62 112.32 116.612 112.32ZM162.004 120C160.884 120 159.748 119.776 158.596 119.328C157.444 118.88 156.404 118.224 155.476 117.36C154.58 116.496 153.924 115.456 153.508 114.24C153.22 113.44 153.012 112.448 152.884 111.264C152.756 110.08 152.66 108.816 152.596 107.472C152.564 106.128 152.548 104.816 152.548 103.536C151.3 103.504 150.1 103.392 148.948 103.2C147.828 103.008 146.9 102.656 146.164 102.144C145.46 101.6 145.108 100.816 145.108 99.792C145.108 98.544 145.444 97.616 146.116 97.008C146.788 96.368 147.684 95.952 148.804 95.76C149.956 95.536 151.204 95.408 152.548 95.376C152.58 94.384 152.66 93.376 152.788 92.352C152.948 91.296 153.204 90.32 153.556 89.424C153.908 88.528 154.404 87.808 155.044 87.264C155.684 86.688 156.516 86.4 157.54 86.4C158.916 86.4 159.908 86.832 160.516 87.696C161.156 88.56 161.556 89.68 161.716 91.056C161.876 92.432 161.94 93.872 161.908 95.376C163.572 95.344 165.044 95.408 166.324 95.568C167.604 95.728 168.612 96.08 169.348 96.624C170.084 97.168 170.452 98.032 170.452 99.216C170.452 100.432 170.036 101.344 169.204 101.952C168.372 102.56 167.284 102.976 165.94 103.2C164.596 103.392 163.172 103.504 161.668 103.536C161.668 104.144 161.652 104.784 161.62 105.456C161.62 106.096 161.62 106.752 161.62 107.424C161.62 109.248 161.748 110.544 162.004 111.312C162.196 111.888 162.452 112.256 162.772 112.416C163.124 112.576 163.556 112.672 164.068 112.704C164.58 112.704 165.204 112.8 165.94 112.992C166.676 113.152 167.252 113.552 167.668 114.192C168.084 114.8 168.292 115.584 168.292 116.544C168.292 117.632 167.716 118.48 166.564 119.088C165.444 119.696 163.924 120 162.004 120ZM176.539 120C175.451 120 174.555 119.648 173.851 118.944C173.179 118.208 172.667 117.232 172.315 116.016C171.963 114.8 171.723 113.408 171.595 111.84C171.467 110.272 171.403 108.656 171.403 106.992C171.403 105.872 171.419 104.736 171.451 103.584C171.515 102.4 171.675 101.312 171.931 100.32C172.219 99.328 172.683 98.528 173.323 97.92C173.995 97.28 174.939 96.96 176.155 96.96C177.019 96.96 177.803 97.168 178.507 97.584C179.211 97.968 179.659 98.56 179.851 99.36C180.587 98.688 181.515 98.208 182.635 97.92C183.787 97.6 184.971 97.44 186.187 97.44C187.211 97.44 188.251 97.696 189.307 98.208C190.363 98.688 191.259 99.36 191.995 100.224C192.731 101.088 193.099 102.064 193.099 103.152C193.099 104.08 192.747 104.96 192.043 105.792C191.371 106.624 190.411 107.04 189.163 107.04C188.619 107.04 188.171 106.976 187.819 106.848C187.467 106.688 187.131 106.544 186.811 106.416C186.491 106.288 186.107 106.224 185.659 106.224C184.475 106.224 183.387 106.704 182.395 107.664C181.435 108.592 180.955 109.856 180.955 111.456C180.955 112.288 180.923 113.2 180.859 114.192C180.827 115.152 180.683 116.08 180.427 116.976C180.203 117.872 179.787 118.608 179.179 119.184C178.571 119.728 177.691 120 176.539 120ZM202.684 120C201.116 120 199.676 119.76 198.364 119.28C197.084 118.8 196.06 118.08 195.292 117.12C194.524 116.128 194.14 114.88 194.14 113.376C194.14 112.096 194.524 111.008 195.292 110.112C196.06 109.216 197.084 108.528 198.364 108.048C199.676 107.568 201.116 107.328 202.684 107.328C203.612 107.328 204.46 107.408 205.228 107.568C205.996 107.696 206.524 107.856 206.812 108.048C206.812 107.312 206.508 106.672 205.9 106.128C205.292 105.552 204.236 105.264 202.732 105.264C202.028 105.264 201.468 105.328 201.052 105.456C200.668 105.552 200.316 105.68 199.996 105.84C199.676 106 199.308 106.144 198.892 106.272C198.508 106.368 197.98 106.416 197.308 106.416C196.316 106.416 195.516 106.16 194.908 105.648C194.332 105.104 194.044 104.288 194.044 103.2C194.044 102.208 194.316 101.36 194.86 100.656C195.436 99.92 196.172 99.312 197.068 98.832C197.964 98.352 198.924 98 199.948 97.776C201.004 97.552 202.012 97.44 202.972 97.44C205.82 97.44 208.14 97.968 209.932 99.024C211.724 100.048 213.052 101.392 213.916 103.056C214.78 104.72 215.212 106.528 215.212 108.48C215.212 109.568 215.116 110.576 214.924 111.504C214.764 112.432 214.54 113.152 214.252 113.664C214.7 114.048 215.036 114.496 215.26 115.008C215.516 115.52 215.644 116.048 215.644 116.592C215.644 117.488 215.34 118.288 214.732 118.992C214.156 119.664 213.324 120 212.236 120C211.404 120 210.748 119.872 210.268 119.616C209.788 119.36 209.308 119.024 208.828 118.608C208.06 119.056 207.212 119.408 206.284 119.664C205.356 119.888 204.156 120 202.684 120ZM203.644 115.152C204.38 115.152 204.924 115.008 205.276 114.72C205.66 114.4 205.852 114.048 205.852 113.664C205.852 113.28 205.66 112.944 205.276 112.656C204.924 112.336 204.38 112.176 203.644 112.176C202.94 112.176 202.396 112.336 202.012 112.656C201.628 112.944 201.436 113.28 201.436 113.664C201.436 114.048 201.628 114.4 202.012 114.72C202.396 115.008 202.94 115.152 203.644 115.152ZM236.535 120C235.255 120 234.343 119.648 233.799 118.944C233.287 118.208 232.983 117.296 232.887 116.208C232.791 115.088 232.743 113.968 232.743 112.848C232.743 111.152 232.503 109.792 232.023 108.768C231.543 107.712 230.695 107.184 229.479 107.184C228.391 107.184 227.591 107.712 227.079 108.768C226.567 109.792 226.311 111.152 226.311 112.848C226.311 113.968 226.263 115.072 226.167 116.16C226.103 117.248 225.815 118.16 225.303 118.896C224.791 119.6 223.863 119.952 222.519 119.952C221.527 119.952 220.695 119.584 220.023 118.848C219.383 118.112 218.887 117.152 218.535 115.968C218.183 114.784 217.927 113.504 217.767 112.128C217.639 110.752 217.575 109.424 217.575 108.144C217.575 106.864 217.639 105.552 217.767 104.208C217.895 102.864 218.119 101.616 218.439 100.464C218.791 99.312 219.287 98.384 219.927 97.68C220.567 96.976 221.399 96.624 222.423 96.624C224.247 96.624 225.383 97.456 225.831 99.12C226.215 98.704 226.823 98.32 227.655 97.968C228.519 97.584 229.495 97.392 230.583 97.392C233.047 97.392 235.063 98.016 236.631 99.264C238.199 100.512 239.335 102.24 240.039 104.448C240.775 106.624 241.127 109.152 241.095 112.032C241.095 113.504 240.951 114.848 240.663 116.064C240.407 117.248 239.943 118.208 239.271 118.944C238.631 119.648 237.719 120 236.535 120ZM249.257 120C247.657 120 246.441 119.376 245.609 118.128C244.777 116.88 244.217 114.944 243.929 112.32C243.641 109.664 243.497 106.24 243.497 102.048C243.497 98.912 243.577 96.176 243.737 93.84C243.929 91.504 244.409 89.68 245.177 88.368C245.945 87.056 247.177 86.4 248.873 86.4C250.185 86.4 251.177 86.768 251.849 87.504C252.521 88.208 252.969 89.152 253.193 90.336C253.449 91.488 253.593 92.768 253.625 94.176C253.657 95.552 253.673 96.928 253.673 98.304C254.217 98.048 254.729 97.84 255.209 97.68C255.721 97.52 256.521 97.44 257.609 97.44C259.881 97.44 261.785 98 263.321 99.12C264.857 100.24 266.025 101.728 266.825 103.584C267.625 105.44 268.025 107.488 268.025 109.728C268.025 110.88 267.977 112.048 267.881 113.232C267.785 114.416 267.577 115.504 267.257 116.496C266.937 117.488 266.473 118.304 265.865 118.944C265.257 119.552 264.441 119.856 263.417 119.856C262.105 119.856 261.129 119.568 260.489 118.992C259.881 118.384 259.497 117.536 259.337 116.448C259.177 115.328 259.097 114.032 259.097 112.56C259.097 110.864 258.905 109.456 258.521 108.336C258.169 107.216 257.465 106.656 256.409 106.656C255.353 106.656 254.617 107.216 254.201 108.336C253.817 109.456 253.609 110.864 253.577 112.56C253.577 114.032 253.481 115.328 253.289 116.448C253.129 117.568 252.745 118.448 252.137 119.088C251.529 119.696 250.569 120 249.257 120Z" fill="#FFB7C5"/>
<path d="M88.8638 7.53893H113.563L118.112 1.68921L125.262 7.53893L120.712 12.7387V33.5377H99.2634L95.3635 51.7368H113.563L118.112 47.837L125.262 54.9867L120.712 58.8865C121.796 69.286 119.802 90.605 103.163 92.6849C99.6967 87.7018 91.9837 78.3856 88.8638 80.9855H105.763C108.363 82.0687 113.563 79.1655 113.563 58.8865H95.3635L92.7637 62.7863C89.2972 61.9197 83.0141 59.1465 85.614 54.9867C88.8638 49.7869 92.7637 26.388 92.7637 24.4381C92.7637 22.8782 97.0968 26.388 99.2634 28.3379H113.563V12.7387H88.8638V7.53893Z" stroke="#FFB7C5"/>
<path d="M134.302 44.5479V1L140.802 4.89982H161.601L166.801 1L173.95 10.0996H140.802V17.8992H159.001L163.551 13.3494L172 22.449H140.802V32.1985H161.601L166.801 26.9988L173.95 36.7483H140.802V44.5479H166.801L172 39.9981L180.45 49.0977H151.851C152.501 58.1973 157.051 65.9969 159.001 67.9468C160.561 69.5068 167.451 60.7972 170.7 56.2474L176.55 62.0971C168.751 64.697 163.334 69.6801 161.601 71.8466C163.161 79.1263 177.85 87.4459 185 90.6957L170.7 93.2956C167.061 95.3755 158.351 82.4628 154.451 75.7465L131.702 93.2956L125.203 86.146L134.302 82.2461V49.0977H128.452L125.203 44.5479H134.302Z" stroke="#FFB7C5"/>
<path d="M138.852 49.7478H148.601C146.521 53.9076 151.201 66.2137 153.801 71.8468C152.761 73.4067 144.268 76.8299 140.152 78.3464V57.5474L143.402 51.6977H138.852V49.7478Z" stroke="#FFB7C5"/>
<path d="M99.6853 140.874V116.399L108.776 120.594L105.28 124.79V140.874H113.671L117.867 136.678L125.559 145.07L119.965 146.469C120.198 154.627 120.524 172.343 119.965 177.937C119.406 183.532 115.536 186.329 113.671 187.028C111.434 180.874 107.145 179.802 105.28 180.035V215.699L99.6853 218.497V145.07H91.993V183.532L85 187.028V136.678L91.993 140.874H99.6853Z" stroke="#FFB7C5"/>
<path d="M105.979 175.839V146.469H113.671V175.839H105.979Z" stroke="#FFB7C5"/>
<path d="M127.657 144.371C134.371 139.336 148.17 122.692 154.231 115L161.224 124.091C141.084 140.315 130.454 144.371 127.657 144.371Z" stroke="#FFB7C5"/>
<path d="M147.238 145.769C146.81 145.256 146.345 144.791 145.856 144.371M145.856 144.371C143.147 142.039 139.726 141.072 138.147 140.874C140.384 148.706 141.876 152.063 142.342 152.762H125.559L130.454 158.357L135.349 155.56H147.238V166.049H124.161L129.056 171.643L133.951 169.546H147.238V179.336H127.657L132.552 184.93L135.349 182.832H147.238V206.608H136.748C141.783 208.846 143.974 215 144.44 217.797C151.713 216.119 153.531 212.436 153.531 210.804V182.832H171.014V169.546H185L177.307 159.755L171.014 164.65V159.755L175.909 155.56L168.916 148.567L164.72 152.762H154.93C161.643 148.846 168.45 144.138 171.014 142.273L179.405 140.874L171.014 131.084L161.923 140.874C160.058 137.611 155.489 131.084 152.133 131.084C153.811 133.881 152.832 139.709 152.133 142.273C153.252 145.629 155.396 146.002 156.328 145.769L148.636 152.762C149.196 149.965 147.016 146.002 145.856 144.371Z" stroke="#FFB7C5"/>
<path d="M153.531 165.35V156.958H165.42V165.35H153.531Z" stroke="#FFB7C5"/>
<path d="M153.531 179.336V169.545H164.72V179.336H153.531Z" stroke="#FFB7C5"/>
</svg>
