<svg width="400" height="516" viewBox="0 0 400 516" fill="none" xmlns="http://www.w3.org/2000/svg">
<path fill-rule="evenodd" clip-rule="evenodd" d="M115.814 0C75.1474 34.2437 -4.90094 132.837 0.23585 253.261C3.61239 332.419 51.5758 380.012 100.034 428.096C127.226 455.077 154.573 482.213 174.286 515.168V301.461C159.736 292.719 150 276.782 150 258.571C150 230.957 172.386 208.571 200 208.571C227.614 208.571 250 230.957 250 258.571C250 276.782 240.265 292.718 225.715 301.461V515.165C245.428 482.212 272.775 455.077 299.966 428.096C348.424 380.012 396.388 332.419 399.764 253.261C404.901 132.837 324.852 34.2437 284.186 0L200 126.987L115.814 0Z" fill="#FFB7C5"/>
</svg>
